<svg id="Layer_1" enable-background="new 0 0 512.001 512.001" height="512" viewBox="0 0 512.001 512.001" width="512" xmlns="http://www.w3.org/2000/svg"><g><g clip-rule="evenodd" fill-rule="evenodd"><path d="m256.002 116.002h84.897 84.897c-27.438-36.377-70.99-60.002-119.796-60.002h-100c-48.805 0-92.357 23.626-119.794 60.002h84.899z" fill="#ffda8f"/><g fill="#e6d5cf"><path d="m86.206 196.004c38.634 0 43.082-80.003 84.899-80.003h-84.899c-22.092 0-40.001 17.909-40.001 40.001s17.909 40.002 40.001 40.002z"/><path d="m171.105 116.002c-41.817 0-46.266 80.003-84.899 80.003h84.896c38.634 0 43.082-80.003 84.899-80.003z"/><path d="m256.002 116.002c-41.817 0-46.266 80.003-84.899 80.003h84.896c38.633 0 43.082-80.003 84.899-80.003z"/><path d="m340.898 116.002c-41.817 0-46.266 80.003-84.899 80.003h84.896c38.633 0 43.082-80.003 84.899-80.003z"/><path d="m425.795 116.002c-41.818 0-46.266 80.003-84.899 80.003h84.899c22.092 0 40.001-17.909 40.001-40.001s-17.909-40.002-40.001-40.002z"/></g><path d="m340.895 196.004h-84.896-84.896-84.897c-18.942 25.114-30.205 56.303-30.205 89.998 0 48.927 23.744 92.574 60.276 119.999h279.448c36.531-27.424 60.275-71.071 60.275-119.999 0-33.694-11.263-64.884-30.205-89.997h-84.9z" fill="#ffda8f"/><path d="m395.725 406.001h-279.449-106.276c0 27.501 22.5 50.001 50.001 50.001h392c27.501 0 50.001-22.5 50.001-50.001z" fill="#fff"/></g><g><path d="m502.001 396.001h-80.099c10.605-11.176 19.629-23.846 26.621-37.495 11.433-22.319 17.477-47.391 17.477-72.504 0-29.575-8.02-57.951-23.317-82.939 19.284-6.942 33.113-25.414 33.113-47.059 0-25.854-19.724-47.187-44.914-49.744-14.223-17.739-32.257-32.481-52.414-42.801-22.31-11.423-47.368-17.46-72.468-17.46h-100c-25.099 0-50.158 6.037-72.467 17.459-20.157 10.32-38.191 25.062-52.414 42.801-25.191 2.557-44.915 23.89-44.915 49.744 0 21.646 13.829 40.117 33.113 47.059-15.297 24.988-23.316 53.363-23.316 82.94 0 25.135 6.053 50.225 17.505 72.558 6.989 13.628 16.002 26.279 26.592 37.44h-80.098c-5.522 0-10 4.477-10 10 0 33.084 26.916 60 60 60h392.001c33.084 0 60-26.916 60-60 0-5.522-4.478-9.999-10-9.999zm-46.205-239.998c0 16.543-13.458 30.001-30.001 30.001h-50.441c5.604-7.353 10.355-15.856 14.867-23.941 12.155-21.784 21.198-36.062 35.574-36.062 16.543.001 30.001 13.459 30.001 30.002zm-165.338 30.002c5.604-7.353 10.355-15.856 14.867-23.941 12.155-21.784 21.198-36.062 35.574-36.062h48.433c-6.345 7.99-11.598 17.396-16.575 26.316-11.354 20.348-19.706 33.687-31.86 33.687zm-84.897 0c5.604-7.353 10.355-15.856 14.867-23.941 12.155-21.784 21.198-36.062 35.574-36.062h48.433c-6.345 7.99-11.598 17.396-16.575 26.316-11.354 20.348-19.706 33.687-31.86 33.687zm-84.896 0c5.604-7.353 10.355-15.856 14.867-23.941 12.155-21.784 21.198-36.062 35.574-36.062h48.433c-6.345 7.99-11.598 17.396-16.575 26.316-11.354 20.348-19.706 33.687-31.86 33.687zm85.335-120.006h100c36.441 0 71.656 14.664 97.685 40.002h-295.369c26.029-25.338 61.243-40.002 97.684-40.002zm-149.796 90.004c0-16.543 13.459-30.001 30.002-30.001h48.436c-6.345 7.99-11.598 17.396-16.575 26.316-11.354 20.348-19.706 33.687-31.86 33.687-16.544 0-30.003-13.459-30.003-30.002zm395.797 289.999h-392.001c-18.604 0-34.283-12.767-38.734-30h189.731c5.522 0 10-4.477 10-10s-4.478-10-10-10h-91.303c-33.673-26.534-53.693-67.412-53.693-110 0-28.851 8.729-56.403 25.293-79.997h329.413c16.564 23.594 25.293 51.148 25.293 79.998 0 42.58-20.022 83.466-53.695 109.999h-91.308c-5.522 0-10 4.477-10 10s4.478 10 10 10h189.738c-4.451 17.233-20.13 30-38.734 30z"/><path d="m135.345 234.003h-.008c-5.522 0-9.996 4.477-9.996 10s4.481 10 10.004 10 10-4.477 10-10-4.478-10-10-10z"/><path d="m184.845 289.003h-.008c-5.522 0-9.996 4.477-9.996 10s4.481 10 10.004 10 10-4.477 10-10-4.478-10-10-10z"/><path d="m265.845 240.003h-.008c-5.522 0-9.996 4.477-9.996 10s4.481 10 10.004 10 10-4.477 10-10-4.478-10-10-10z"/><path d="m337.353 296.003c5.522 0 10-4.477 10-10s-4.478-10-10-10h-.008c-5.522 0-9.996 4.477-9.996 10s4.481 10 10.004 10z"/><path d="m401.352 251.003c5.522 0 10-4.477 10-10s-4.478-10-10-10h-.007c-5.522 0-9.997 4.477-9.997 10s4.481 10 10.004 10z"/><path d="m259.345 321.003h-.008c-5.522 0-9.996 4.477-9.996 10s4.481 10 10.004 10 10-4.477 10-10-4.478-10-10-10z"/><path d="m256 396.001h-.007c-5.522 0-9.996 4.477-9.996 10s4.48 10 10.003 10 10-4.477 10-10-4.478-10-10-10z"/></g></g></svg>